<svg width="27" height="27" viewBox="0 0 27 27" fill="none" xmlns="http://www.w3.org/2000/svg">
<path d="M24.7315 0.206543H1.92229C0.860586 0.206543 0 1.06713 0 2.12883V24.938C0 25.9997 0.860586 26.8603 1.92229 26.8603H24.7315C25.7932 26.8603 26.6538 25.9997 26.6538 24.938V2.12883C26.6538 1.06713 25.7932 0.206543 24.7315 0.206543V0.206543ZM9.45424 20.353H6.20854V10.5883H9.45424V20.353ZM7.83149 9.2549H7.81035C6.72119 9.2549 6.01678 8.50514 6.01678 7.56809C6.01678 6.6099 6.74275 5.88088 7.85305 5.88088C8.96335 5.88088 9.64661 6.6099 9.66776 7.56809C9.66776 8.50514 8.96335 9.2549 7.83149 9.2549ZM21.1576 20.353H17.9123V15.1291C17.9123 13.8163 17.4423 12.9209 16.268 12.9209C15.3714 12.9209 14.8374 13.5249 14.6027 14.1079C14.5169 14.3165 14.496 14.6081 14.496 14.8999V20.353H11.2505C11.2505 20.353 11.293 11.5044 11.2505 10.5883H14.496V11.9709C14.9273 11.3055 15.699 10.3591 17.421 10.3591C19.5564 10.3591 21.1576 11.7547 21.1576 14.7539V20.353Z" fill="#181818"/>
</svg>
