<svg width="28" height="27" viewBox="0 0 28 27" fill="none" xmlns="http://www.w3.org/2000/svg">
<path d="M19.3673 0.20752H8.59411C4.21581 0.20752 0.653809 3.76952 0.653809 8.14782V18.921C0.653809 23.2993 4.21581 26.8613 8.59411 26.8613H19.3673C23.7456 26.8613 27.3076 23.2993 27.3076 18.921V8.14782C27.3075 3.76952 23.7455 0.20752 19.3673 0.20752ZM24.6262 18.921C24.6262 21.8254 22.2717 24.1799 19.3673 24.1799H8.59411C5.6897 24.1799 3.33518 21.8254 3.33518 18.921V8.14782C3.33518 5.24337 5.6897 2.88889 8.59411 2.88889H19.3673C22.2717 2.88889 24.6262 5.24337 24.6262 8.14782V18.921Z" fill="#181818"/>
<path d="M13.981 6.64062C10.1799 6.64062 7.0874 9.73309 7.0874 13.5342C7.0874 17.3353 10.1799 20.4278 13.981 20.4278C17.7822 20.4278 20.8746 17.3353 20.8746 13.5342C20.8746 9.73304 17.7822 6.64062 13.981 6.64062ZM13.981 17.7465C11.6546 17.7465 9.76877 15.8606 9.76877 13.5342C9.76877 11.2079 11.6547 9.32199 13.981 9.32199C16.3074 9.32199 18.1933 11.2079 18.1933 13.5342C18.1933 15.8606 16.3073 17.7465 13.981 17.7465Z" fill="#181818"/>
<path d="M20.8872 8.34472C21.7995 8.34472 22.5391 7.60516 22.5391 6.69287C22.5391 5.78057 21.7995 5.04102 20.8872 5.04102C19.9749 5.04102 19.2354 5.78057 19.2354 6.69287C19.2354 7.60516 19.9749 8.34472 20.8872 8.34472Z" fill="#181818"/>
</svg>
