<svg width="29" height="25" viewBox="0 0 29 25" fill="none" xmlns="http://www.w3.org/2000/svg">
<g clip-path="url(#clip0_2_931)">
<path d="M20.0295 5.64189H17.2984H7.89507L6.97912 1.70422L2.01694 0L1.1021 2.66378L4.58923 3.86137L7.91786 18.2733H26.0749L28.934 5.64189H20.0295Z" fill="#181818"/>
<path d="M12.5445 25.0002C14.0765 25.0002 15.3183 23.7583 15.3183 22.2264C15.3183 20.6945 14.0765 19.4526 12.5445 19.4526C11.0126 19.4526 9.77075 20.6945 9.77075 22.2264C9.77075 23.7583 11.0126 25.0002 12.5445 25.0002Z" fill="#181818"/>
<path d="M21.5809 25.0002C23.1128 25.0002 24.3547 23.7583 24.3547 22.2264C24.3547 20.6945 23.1128 19.4526 21.5809 19.4526C20.049 19.4526 18.8071 20.6945 18.8071 22.2264C18.8071 23.7583 20.049 25.0002 21.5809 25.0002Z" fill="#181818"/>
</g>
<defs>
<clipPath id="clip0_2_931">
<rect width="29" height="25" fill="white"/>
</clipPath>
</defs>
</svg>
