<svg width="28" height="25" viewBox="0 0 28 25" fill="none" xmlns="http://www.w3.org/2000/svg">
<path d="M19.0295 5.64189H16.2984H6.89507L5.97912 1.70422L1.01694 0L0.102104 2.66378L3.58923 3.86137L6.91786 18.2733H25.0749L27.934 5.64189H19.0295Z" fill="#181818"/>
<path d="M11.5445 25.0002C13.0765 25.0002 14.3183 23.7583 14.3183 22.2264C14.3183 20.6945 13.0765 19.4526 11.5445 19.4526C10.0126 19.4526 8.77075 20.6945 8.77075 22.2264C8.77075 23.7583 10.0126 25.0002 11.5445 25.0002Z" fill="#181818"/>
<path d="M20.5809 25.0002C22.1128 25.0002 23.3547 23.7583 23.3547 22.2264C23.3547 20.6945 22.1128 19.4526 20.5809 19.4526C19.049 19.4526 17.8071 20.6945 17.8071 22.2264C17.8071 23.7583 19.049 25.0002 20.5809 25.0002Z" fill="#181818"/>
</svg>
